<svg id="Layer_1" data-name="Layer 1" xmlns="http://www.w3.org/2000/svg" viewBox="0 0 231 230.74">
    <defs>
        <style>.cls-1{fill:#111d37;}.cls-2{fill:#fff;}.cls-3{fill:none;stroke:#fff;stroke-miterlimit:10;}</style>
    </defs>
    <title>om_logo</title>
    <path class="cls-1" d="M142.39,211.4l-1.3,0H20.79c-1.3,0-1.3,0-1.3-1.35V19.37q95.37,0,190.75,0c1,0,1.27.18,1.27,1.23q0,60.26,0,120.5c0,.4,0,.8,0,1.21,0,.62-.54.9-.9,1.26l-44.37,44.38q-11.33,11.33-22.65,22.64C143.25,210.9,143,211.39,142.39,211.4Z" />
    <path class="cls-2" d="M104.94,115a53.26,53.26,0,0,1,6.9,2.44c7,3.15,12.24,8,14.31,15.54,3.88,14-2.38,29.4-17.81,34.63-12,4.07-23.51,2.65-33.93-4.87A28.74,28.74,0,0,1,64,148.37c-.28-.8-.07-.84.69-.94,2.14-.28,3.23.4,4.22,2.52,4,8.51,11,13.31,20,15.23a32.42,32.42,0,0,0,20-1.75c8.29-3.58,13-9.94,14.16-18.92a25.24,25.24,0,0,0-.75-10.76c-1.87-6-5.9-10.11-11.44-12.85a38.29,38.29,0,0,0-13.25-3.44,111.84,111.84,0,0,0-11.58-.24c-.84,0-1.25-.14-1.13-1.09s-.38-2.13.18-2.72,1.78-.2,2.71-.19c4.74.06,9.46,0,14.09-1.21,6.09-1.61,11.43-4.4,15.31-9.55,3.16-4.18,4.12-8.92,3.71-14a22.74,22.74,0,0,0-18.6-21.19c-7.62-1.64-15-.84-21.77,3.15A23.91,23.91,0,0,0,69.83,84c-.24.73-.51,1.06-1.3,1a10.63,10.63,0,0,0-2.11,0c-.78.07-.82-.28-.65-.87A28.2,28.2,0,0,1,69,76.58,28.72,28.72,0,0,1,88.7,63.29c7.69-1.5,15.19-.76,22.18,3,7.91,4.29,12.41,11,13.73,19.91.9,6,.16,11.76-3.2,17A26.93,26.93,0,0,1,109.8,113C108.22,113.76,106.6,114.38,104.94,115Z" />
    <path class="cls-2" d="M174.44,62.56C173,82.76,164.8,99.16,147.06,110a44.81,44.81,0,0,1-20.54,6.37c-.81,0-.87-.12-.59-2-.51-1.8-.46-2,.39-2.11a42.74,42.74,0,0,0,18.73-5.84c10.36-6.11,17.35-15,21.62-26.17a56.76,56.76,0,0,0,3.6-19.07c0-.74.21-1,1-.94a5.34,5.34,0,0,0,.8,0C174.41,60.17,174.41,60.17,174.44,62.56Z" />
    <path class="cls-2" d="M138.78,55.37c4.75,4.57,1.21,10.48-3.49,10.5a5.83,5.83,0,0,1-5.82-5.81C129.53,55.75,134.17,52.67,138.78,55.37Z" />
    <polygon class="cls-1" points="102.76 9.22 102.76 14.22 14.2 14.22 14.2 103.63 9.2 103.63 9.2 9.22 102.76 9.22" />
    <path class="cls-1" d="M206.4,163.32v42.79H163.61l42.79-42.8m5-12.07-59.87,59.87H211.4V151.25Z" />
    <rect class="cls-3" x="27.8" y="27.68" width="175.09" height="175.09" />
</svg>