<svg xmlns="http://www.w3.org/2000/svg" xmlns:xlink="http://www.w3.org/1999/xlink">
    <symbol viewBox="0 0 21.13 20" id="cart" xmlns="http://www.w3.org/2000/svg">
        <title>cart</title>
        <ellipse cx="6.44" cy="17.57" rx="1.89" ry="1.89" />
        <ellipse cx="15.91" cy="17.57" rx="1.89" ry="1.89" />
        <path d="M6.6 12.6v-.11l.85-1.54h7.05a1.88 1.88 0 0 0 1.66-1l3.65-6.63-1.61-.89-1 1.89-2.67 4.73H7.89l-.12-.25-2.12-4.48-.9-1.89L3.86.54H.57v1.89h2.09l3.4 7.18-1.27 2.32a1.83 1.83 0 0 0-.24.91 1.9 1.9 0 0 0 1.89 1.89H17.8v-1.89h-11a.24.24 0 0 1-.2-.24z" />
        <path d="M19.6 3.78H4.07V1.87h16.32a.18.18 0 0 1 .16.27z" />
    </symbol>
    <symbol id="close" viewBox="0 0 24 24" xmlns="http://www.w3.org/2000/svg">
        <style>.bst0{fill:#fff}</style>
        <path class="bst0" d="M24 21l-9.2-9.1 9.1-9.2L21 0l-9.1 9.2L2.8 0 0 2.9 9.1 12 0 21.1 2.9 24l9.1-9.2 9.2 9.1L24 21z" />
    </symbol>
    <symbol viewBox="0 0 100 100" id="flag-cad" xmlns="http://www.w3.org/2000/svg">
        <path fill="#ec6761" d="M0 25h100v50H0z" />
        <path fill="#fff" d="M25 25h50v50H25z" />
        <path d="M50 29.69l-3.41 6.36c-.39.69-1.08.63-1.77.24L42.34 35l1.84 9.77c.39 1.79-.85 1.79-1.47 1L38.41 41l-.7 2.45a.84.84 0 0 1-1 .58l-5.45-1.15 1.43 5.2c.31 1.16.55 1.64-.31 1.94l-1.94.91 9.38 7.62a1.23 1.23 0 0 1 .43 1.28l-.82 2.69c3.23-.37 6.12-.93 9.36-1.28.29 0 .76.44.76.77l-.43 9.87h1.57L50.47 62c0-.33.43-.82.72-.79 3.23.35 6.13.91 9.36 1.28l-.82-2.69a1.23 1.23 0 0 1 .43-1.28l9.38-7.62-1.95-.9c-.85-.31-.62-.78-.31-1.94l1.43-5.2L63.26 44a.84.84 0 0 1-1-.58L61.59 41l-4.31 4.8c-.61.77-1.85.77-1.47-1l1.85-9.8-2.47 1.28c-.69.39-1.39.45-1.77-.24" fill="#ec6761" />
    </symbol>
    <symbol viewBox="0 0 100 100" id="flag-usd" xmlns="http://www.w3.org/2000/svg">
        <path fill="#ec6761" d="M0 62.15h100v8.1H0z" />
        <path fill="#fcfafa" d="M0 54.05h100v8.1H0zM0 70.24h100v6.07H0z" />
        <path fill="#ec6761" d="M0 45.95h100v8.1H0z" />
        <path fill="#fcfafa" d="M0 37.85h100v8.1H0zM0 23.68h100v6.07H0z" />
        <path fill="#ec6761" d="M0 29.76h100v8.1H0z" />
        <path fill="#3c3b6e" d="M0 23.68h40v28.34H0z" />
        <g fill="#fff">
            <path d="M3.33 24.9l1 2.93L1.79 26h3.08l-2.49 1.83z" />
            <path data-name="s" d="M3.33 30.57l1 2.93-2.54-1.81h3.08L2.38 33.5zM3.33 36.23l1 2.93-2.54-1.81h3.08l-2.49 1.81zM3.33 41.9l1 2.93L1.79 43h3.08l-2.49 1.83zM3.33 47.57l1 2.93-2.54-1.81h3.08L2.38 50.5z" />
        </g>
        <g data-name="s4" fill="#fff">
            <path data-name="s" d="M6.67 27.73l1 2.93-2.54-1.81h3.08l-2.5 1.81zM6.67 33.4l1 2.93-2.54-1.81h3.08l-2.5 1.81zM6.67 39.07l1 2.93-2.54-1.81h3.08L5.71 42zM6.67 44.74l1 2.93-2.54-1.81h3.08l-2.5 1.81z" />
        </g>
        <g data-name="s5" fill="#fff">
            <g data-name="s4">
                <path data-name="s" d="M10 24.9l1 2.93L8.46 26h3.08L9 27.83zM10 30.57l1 2.93-2.54-1.81h3.08L9 33.5zM10 36.23l1 2.93-2.54-1.81h3.08L9 39.16zM10 41.9l1 2.93L8.46 43h3.08L9 44.83z" />
            </g>
            <path data-name="s" d="M10 47.57l1 2.93-2.54-1.81h3.08L9 50.5z" />
        </g>
        <g data-name="s9">
            <g data-name="s4" fill="#fff">
                <path data-name="s" d="M13.33 27.73l1 2.93-2.49-1.81h3.08l-2.49 1.81zM13.33 33.4l1 2.93-2.49-1.81h3.08l-2.49 1.81zM13.33 39.07l1 2.93-2.49-1.81h3.08L12.38 42zM13.33 44.74l1 2.93-2.49-1.81h3.08l-2.49 1.81z" />
            </g>
        </g>
        <g data-name="s5" fill="#fff">
            <g data-name="s4">
                <path data-name="s" d="M16.67 24.9l1 2.93L15.13 26h3.08l-2.49 1.81zM16.67 30.57l1 2.93-2.49-1.81h3.08l-2.55 1.81zM16.67 36.23l1 2.93-2.49-1.81h3.08l-2.49 1.81zM16.67 41.9l1 2.93L15.13 43h3.08l-2.49 1.81z" />
            </g>
            <path data-name="s" d="M16.67 47.57l1 2.93-2.49-1.81h3.08l-2.55 1.81z" />
        </g>
        <g data-name="s9">
            <g data-name="s4" fill="#fff">
                <path data-name="s" d="M20 27.73l1 2.93-2.49-1.81h3.08L19 30.66zM20 33.4l1 2.93-2.49-1.81h3.08L19 36.33zM20 39.07L21 42l-2.49-1.81h3.08L19 42zM20 44.74l1 2.93-2.49-1.81h3.08L19 47.67z" />
            </g>
        </g>
        <g data-name="s18">
            <g data-name="s5" fill="#fff">
                <g data-name="s4">
                    <path data-name="s" d="M23.33 24.9l1 2.93L21.79 26h3.08l-2.49 1.81zM23.33 30.57l1 2.93-2.49-1.81h3.08l-2.54 1.81zM23.33 36.23l1 2.93-2.49-1.81h3.08l-2.49 1.81zM23.33 41.9l1 2.93L21.79 43h3.08l-2.49 1.81z" />
                </g>
                <path data-name="s" d="M23.33 47.57l1 2.93-2.49-1.81h3.08l-2.54 1.81z" />
            </g>
            <g data-name="s9">
                <g data-name="s4" fill="#fff">
                    <path data-name="s" d="M26.67 27.73l1 2.93-2.49-1.81h3.08l-2.49 1.81zM26.67 33.4l1 2.93-2.49-1.81h3.08l-2.49 1.81zM26.67 39.07l1 2.93-2.49-1.81h3.08L25.71 42zM26.67 44.74l1 2.93-2.49-1.81h3.08l-2.49 1.81z" />
                </g>
            </g>
        </g>
        <g data-name="s5" fill="#fff">
            <g data-name="s4">
                <path data-name="s" d="M30 24.9l1 2.93L28.46 26h3.08L29 27.83zM30 30.57l1 2.93-2.49-1.81h3.08L29 33.5zM30 36.23l1 2.93-2.49-1.81h3.08L29 39.16zM30 41.9l1 2.93L28.46 43h3.08L29 44.83z" />
            </g>
            <path data-name="s" d="M30 47.57l1 2.93-2.49-1.81h3.08L29 50.5z" />
        </g>
        <g data-name="s9">
            <g data-name="s4" fill="#fff">
                <path data-name="s" d="M33.33 27.73l1 2.93-2.49-1.81h3.08l-2.49 1.81zM33.33 33.4l1 2.93-2.49-1.81h3.08l-2.49 1.81zM33.33 39.07l1 2.93-2.49-1.81h3.08L32.38 42zM33.33 44.74l1 2.93-2.49-1.81h3.08l-2.49 1.81z" />
            </g>
        </g>
        <g data-name="s5" fill="#fff">
            <g data-name="s4">
                <path data-name="s" d="M36.67 24.9l1 2.93L35.13 26h3.08l-2.49 1.81zM36.67 30.57l1 2.93-2.49-1.81h3.08l-2.55 1.81zM36.67 36.23l1 2.93-2.49-1.81h3.08l-2.49 1.81zM36.67 41.9l1 2.93L35.13 43h3.08l-2.49 1.81z" />
            </g>
            <path data-name="s" d="M36.67 47.57l1 2.93-2.49-1.81h3.08l-2.55 1.81z" />
        </g>
    </symbol>
    <symbol viewBox="0 0 202 202" id="logo" xmlns="http://www.w3.org/2000/svg">
       <!--  <path d="M81 0h10.5v45.3H81zM95.5 0h10.6v45.3H95.5zM46.7 14.7H36.4c.1.7-.2 3.7-1.9 7.9-.4.9-2.4 5.9-4.5 10.9l-7.2-17.2L34.6 0H23.7L11.1 19.1V0H.1v45.3h11V32.4l4.8-6.7 8.6 19.6h10.9s7.8-19.1 9.3-22.7c1.8-4.1 2.2-7.1 2-7.9zM68.9 34l8.9 2.8c-2.9 6.2-8.4 9.2-16 9.2-9.7 0-16.7-5.9-16.7-16.2 0-10.4 6.7-16.7 16.6-16.7 7.7 0 17.4 4.5 16.2 18.9H55.3c.6 3.7 2.9 5.6 6.4 5.7 5.8.3 7.2-3.7 7.2-3.7zm-1.1-8c-.5-3-2.5-4.7-6.1-4.7-3.4 0-5.6 1.1-6.4 4.7h12.5zM120 40.2c0 2.9-2.4 5.2-5.3 5.2s-5.2-2.4-5.2-5.2 2.3-5.2 5.2-5.2c2.9 0 5.2 2.4 5.3 5.2" /> -->

       <path class="cls-1" d="M142.39,211.4l-1.3,0H20.79c-1.3,0-1.3,0-1.3-1.35V19.37q95.37,0,190.75,0c1,0,1.27.18,1.27,1.23q0,60.26,0,120.5c0,.4,0,.8,0,1.21,0,.62-.54.9-.9,1.26l-44.37,44.38q-11.33,11.33-22.65,22.64C143.25,210.9,143,211.39,142.39,211.4Z" />
    <path class="cls-2" d="M104.94,115a53.26,53.26,0,0,1,6.9,2.44c7,3.15,12.24,8,14.31,15.54,3.88,14-2.38,29.4-17.81,34.63-12,4.07-23.51,2.65-33.93-4.87A28.74,28.74,0,0,1,64,148.37c-.28-.8-.07-.84.69-.94,2.14-.28,3.23.4,4.22,2.52,4,8.51,11,13.31,20,15.23a32.42,32.42,0,0,0,20-1.75c8.29-3.58,13-9.94,14.16-18.92a25.24,25.24,0,0,0-.75-10.76c-1.87-6-5.9-10.11-11.44-12.85a38.29,38.29,0,0,0-13.25-3.44,111.84,111.84,0,0,0-11.58-.24c-.84,0-1.25-.14-1.13-1.09s-.38-2.13.18-2.72,1.78-.2,2.71-.19c4.74.06,9.46,0,14.09-1.21,6.09-1.61,11.43-4.4,15.31-9.55,3.16-4.18,4.12-8.92,3.71-14a22.74,22.74,0,0,0-18.6-21.19c-7.62-1.64-15-.84-21.77,3.15A23.91,23.91,0,0,0,69.83,84c-.24.73-.51,1.06-1.3,1a10.63,10.63,0,0,0-2.11,0c-.78.07-.82-.28-.65-.87A28.2,28.2,0,0,1,69,76.58,28.72,28.72,0,0,1,88.7,63.29c7.69-1.5,15.19-.76,22.18,3,7.91,4.29,12.41,11,13.73,19.91.9,6,.16,11.76-3.2,17A26.93,26.93,0,0,1,109.8,113C108.22,113.76,106.6,114.38,104.94,115Z" />
    <path class="cls-2" d="M174.44,62.56C173,82.76,164.8,99.16,147.06,110a44.81,44.81,0,0,1-20.54,6.37c-.81,0-.87-.12-.59-2-.51-1.8-.46-2,.39-2.11a42.74,42.74,0,0,0,18.73-5.84c10.36-6.11,17.35-15,21.62-26.17a56.76,56.76,0,0,0,3.6-19.07c0-.74.21-1,1-.94a5.34,5.34,0,0,0,.8,0C174.41,60.17,174.41,60.17,174.44,62.56Z" />
    <path class="cls-2" d="M138.78,55.37c4.75,4.57,1.21,10.48-3.49,10.5a5.83,5.83,0,0,1-5.82-5.81C129.53,55.75,134.17,52.67,138.78,55.37Z" />
    <polygon class="cls-1" points="102.76 9.22 102.76 14.22 14.2 14.22 14.2 103.63 9.2 103.63 9.2 9.22 102.76 9.22" />
    <path class="cls-1" d="M206.4,163.32v42.79H163.61l42.79-42.8m5-12.07-59.87,59.87H211.4V151.25Z" />
    <rect class="cls-3" x="27.8" y="27.68" width="175.09" height="175.09" />
    </symbol>
    <symbol viewBox="0 0 24 24" id="mail" xmlns="http://www.w3.org/2000/svg">
        <title>mail</title>
        <path d="M21.6 2.4H2.4A2.4 2.4 0 0 0 0 4.8v14.4a2.41 2.41 0 0 0 2.4 2.4h19.2a2.41 2.41 0 0 0 2.4-2.4V4.8a2.41 2.41 0 0 0-2.4-2.4zm0 4.8l-9.6 6-9.6-6V4.8l9.6 6 9.6-6z" />
    </symbol>
    <symbol id="next" viewBox="0 0 12 12" xmlns="http://www.w3.org/2000/svg">
        <style>.gst0{fill:#fff}</style>
        <title>Artboard 6</title>
        <path class="gst0" d="M9.7 6l-6 6-1.4-1.4L6.9 6 2.3 1.4 3.7 0z" />
    </symbol>
    <symbol id="prev" viewBox="0 0 12 12" xmlns="http://www.w3.org/2000/svg">
        <style>.hst0{fill:#fff}</style>
        <title>Artboard 6</title>
        <path class="hst0" d="M2.3 6l6 6 1.4-1.4L5.1 6l4.6-4.6L8.3 0z" />
    </symbol>
    <symbol viewBox="0 0 24 24" id="share" xmlns="http://www.w3.org/2000/svg">
        <path d="M6 2.4c1.3 0 2.4 1.1 2.4 2.4 0 1.3-1.1 2.4-2.4 2.4-1.3 0-2.4-1.1-2.4-2.4 0-1.3 1.1-2.4 2.4-2.4M6 0C3.3 0 1.2 2.1 1.2 4.8c0 2.7 2.1 4.8 4.8 4.8s4.8-2.1 4.8-4.8C10.8 2.1 8.7 0 6 0zm0 16.8c1.3 0 2.4 1.1 2.4 2.4S7.3 21.6 6 21.6c-1.3 0-2.4-1.1-2.4-2.4s1.1-2.4 2.4-2.4m0-2.4c-2.7 0-4.8 2.1-4.8 4.8C1.2 21.9 3.3 24 6 24s4.8-2.1 4.8-4.8c0-2.7-2.1-4.8-4.8-4.8zm12-4.8c1.3 0 2.4 1.1 2.4 2.4s-1.1 2.4-2.4 2.4c-1.3 0-2.4-1.1-2.4-2.4s1.1-2.4 2.4-2.4m0-2.4c-2.7 0-4.8 2.1-4.8 4.8s2.1 4.8 4.8 4.8 4.8-2.1 4.8-4.8-2.1-4.8-4.8-4.8z" />
        <path d="M15.55 14.912L9.72 18.41l-1.234-2.058 5.83-3.5zM15.365 9.065l-1.253 2.047-5.885-3.601 1.252-2.047z" />
    </symbol>
    <symbol viewBox="0 0 24 24" id="social--facebook" xmlns="http://www.w3.org/2000/svg">
        <path d="M22.675 0H1.325C.593 0 0 .593 0 1.325v21.351C0 23.407.593 24 1.325 24H12.82v-9.294H9.692v-3.622h3.128V8.413c0-3.1 1.893-4.788 4.659-4.788 1.325 0 2.463.099 2.795.143v3.24l-1.918.001c-1.504 0-1.795.715-1.795 1.763v2.313h3.587l-.467 3.622h-3.12V24h6.116c.73 0 1.323-.593 1.323-1.325V1.325C24 .593 23.407 0 22.675 0z" />
    </symbol>
    <symbol viewBox="0 0 24 24" id="social--instagram" xmlns="http://www.w3.org/2000/svg">
        <path d="M12 2.163c3.204 0 3.584.012 4.85.07 3.252.148 4.771 1.691 4.919 4.919.058 1.265.069 1.645.069 4.849 0 3.205-.012 3.584-.069 4.849-.149 3.225-1.664 4.771-4.919 4.919-1.266.058-1.644.07-4.85.07-3.204 0-3.584-.012-4.849-.07-3.26-.149-4.771-1.699-4.919-4.92-.058-1.265-.07-1.644-.07-4.849 0-3.204.013-3.583.07-4.849.149-3.227 1.664-4.771 4.919-4.919 1.266-.057 1.645-.069 4.849-.069zM12 0C8.741 0 8.333.014 7.053.072 2.695.272.273 2.69.073 7.052.014 8.333 0 8.741 0 12c0 3.259.014 3.668.072 4.948.2 4.358 2.618 6.78 6.98 6.98C8.333 23.986 8.741 24 12 24c3.259 0 3.668-.014 4.948-.072 4.354-.2 6.782-2.618 6.979-6.98.059-1.28.073-1.689.073-4.948 0-3.259-.014-3.667-.072-4.947-.196-4.354-2.617-6.78-6.979-6.98C15.668.014 15.259 0 12 0zm0 5.838a6.162 6.162 0 1 0 0 12.324 6.162 6.162 0 0 0 0-12.324zM12 16a4 4 0 1 1 0-8 4 4 0 0 1 0 8zm6.406-11.845a1.44 1.44 0 1 0 0 2.881 1.44 1.44 0 0 0 0-2.881z" />
    </symbol>
    <symbol viewBox="0 0 24 24" id="social--pinterest" xmlns="http://www.w3.org/2000/svg">
        <path d="M12 0C5.373 0 0 5.372 0 12c0 5.084 3.163 9.426 7.627 11.174-.105-.949-.2-2.405.042-3.441.218-.937 1.407-5.965 1.407-5.965s-.359-.719-.359-1.782c0-1.668.967-2.914 2.171-2.914 1.023 0 1.518.769 1.518 1.69 0 1.029-.655 2.568-.994 3.995-.283 1.194.599 2.169 1.777 2.169 2.133 0 3.772-2.249 3.772-5.495 0-2.873-2.064-4.882-5.012-4.882-3.414 0-5.418 2.561-5.418 5.207 0 1.031.397 2.138.893 2.738a.36.36 0 0 1 .083.345l-.333 1.36c-.053.22-.174.267-.402.161-1.499-.698-2.436-2.889-2.436-4.649 0-3.785 2.75-7.262 7.929-7.262 4.163 0 7.398 2.967 7.398 6.931 0 4.136-2.607 7.464-6.227 7.464-1.216 0-2.359-.631-2.75-1.378l-.748 2.853c-.271 1.043-1.002 2.35-1.492 3.146C9.57 23.812 10.763 24 12 24c6.627 0 12-5.373 12-12 0-6.628-5.373-12-12-12z" fill-rule="evenodd" clip-rule="evenodd" />
    </symbol>
    <symbol viewBox="0 0 24 24" id="social--pinterest-letter" xmlns="http://www.w3.org/2000/svg">
        <path d="M6.5 23.6c-.2-1.4-.2-2.9.1-4.3.3-1.2 1.8-7.5 1.8-7.5-.3-.7-.5-1.5-.5-2.2 0-2.1 1.2-3.7 2.7-3.7 1.1 0 1.9.8 1.9 1.9V8c0 1.3-.8 3.2-1.3 5-.3 1.2.4 2.4 1.6 2.7.2.1.4.1.6.1 2.7 0 4.8-2.8 4.8-6.9 0-3.6-2.6-6.2-6.3-6.2-3.6-.2-6.6 2.6-6.8 6.2v.4c0 1.2.4 2.5 1.1 3.5.1.1.1.3.1.4-.1.5-.4 1.5-.4 1.7-.1.2-.2.3-.5.2-1.9-.9-3.1-3.6-3.1-5.9 0-4.8 3.5-9.2 10-9.2 5.3 0 9.3 3.7 9.3 8.7 0 5.2-3.3 9.4-7.9 9.4-1.4 0-2.7-.6-3.5-1.7L9.4 20c-.4 1.4-1.1 2.8-1.9 4l-.5-.1c-.2-.1-.4-.2-.5-.3z" />
    </symbol>
    <symbol viewBox="0 0 24 24" id="social--twitter" xmlns="http://www.w3.org/2000/svg">
        <path d="M24 4.557a9.83 9.83 0 0 1-2.828.775 4.932 4.932 0 0 0 2.165-2.724 9.864 9.864 0 0 1-3.127 1.195 4.916 4.916 0 0 0-3.594-1.555c-3.179 0-5.515 2.966-4.797 6.045A13.978 13.978 0 0 1 1.671 3.149a4.93 4.93 0 0 0 1.523 6.574 4.903 4.903 0 0 1-2.229-.616c-.054 2.281 1.581 4.415 3.949 4.89a4.935 4.935 0 0 1-2.224.084 4.928 4.928 0 0 0 4.6 3.419A9.9 9.9 0 0 1 0 19.54a13.94 13.94 0 0 0 7.548 2.212c9.142 0 14.307-7.721 13.995-14.646A10.025 10.025 0 0 0 24 4.557z" />
    </symbol>
    <symbol viewBox="0 0 24 24" id="social--youtube" xmlns="http://www.w3.org/2000/svg">
        <path d="M19.615 3.184c-3.604-.246-11.631-.245-15.23 0C.488 3.45.029 5.804 0 12c.029 6.185.484 8.549 4.385 8.816 3.6.245 11.626.246 15.23 0C23.512 20.55 23.971 18.196 24 12c-.029-6.185-.484-8.549-4.385-8.816zM9 16V8l8 3.993L9 16z" />
    </symbol>
    <symbol viewBox="0 0 20 20" id="zoom" xmlns="http://www.w3.org/2000/svg">
        <title>zoom</title>
        <path d="M7.5 2A5.5 5.5 0 1 1 2 7.5 5.51 5.51 0 0 1 7.5 2m0-2A7.5 7.5 0 1 0 15 7.5 7.5 7.5 0 0 0 7.5 0zM13.445 14.853l1.414-1.414 5.148 5.148L18.592 20z" />
    </symbol>
</svg>